<svg width="27" height="39" viewBox="0 0 27 39" fill="none" xmlns="http://www.w3.org/2000/svg">
<path d="M13 10L12.06 12.06L10 13L12.06 13.94L13 16L13.94 13.94L16 13L13.94 12.06L13 10ZM21 5H17.83L16 3H10L8.17 5H5C3.9 5 3 5.9 3 7V19C3 20.1 3.9 21 5 21H21C22.1 21 23 20.1 23 19V7C23 5.9 22.1 5 21 5ZM21 19H5V7H9.05L9.64 6.35L10.88 5H15.12L16.36 6.35L16.95 7H21V19ZM13 8C10.24 8 8 10.24 8 13C8 15.76 10.24 18 13 18C15.76 18 18 15.76 18 13C18 10.24 15.76 8 13 8ZM13 16C11.35 16 10 14.65 10 13C10 11.35 11.35 10 13 10C14.65 10 16 11.35 16 13C16 14.65 14.65 16 13 16Z" fill="white"/>
<path d="M4.65703 33.2773C4.65703 33.0234 4.55156 32.8301 4.34062 32.6973C4.13359 32.5645 3.78789 32.4473 3.30352 32.3457C2.81914 32.2441 2.41484 32.1152 2.09062 31.959C1.37969 31.6152 1.02422 31.1172 1.02422 30.4648C1.02422 29.918 1.25469 29.4609 1.71562 29.0938C2.17656 28.7266 2.7625 28.543 3.47344 28.543C4.23125 28.543 4.84258 28.7305 5.30742 29.1055C5.77617 29.4805 6.01055 29.9668 6.01055 30.5645H4.58672C4.58672 30.291 4.48516 30.0645 4.28203 29.8848C4.07891 29.7012 3.80937 29.6094 3.47344 29.6094C3.16094 29.6094 2.90508 29.6816 2.70586 29.8262C2.51055 29.9707 2.41289 30.1641 2.41289 30.4062C2.41289 30.625 2.50469 30.7949 2.68828 30.916C2.87187 31.0371 3.24297 31.1602 3.80156 31.2852C4.36016 31.4062 4.79766 31.5527 5.11406 31.7246C5.43437 31.8926 5.6707 32.0957 5.82305 32.334C5.9793 32.5723 6.05742 32.8613 6.05742 33.2012C6.05742 33.7715 5.82109 34.2344 5.34844 34.5898C4.87578 34.9414 4.25664 35.1172 3.49102 35.1172C2.97148 35.1172 2.50859 35.0234 2.10234 34.8359C1.69609 34.6484 1.37969 34.3906 1.15312 34.0625C0.926562 33.7344 0.813281 33.3809 0.813281 33.002H2.19609C2.21562 33.3379 2.34258 33.5977 2.57695 33.7812C2.81133 33.9609 3.12187 34.0508 3.50859 34.0508C3.88359 34.0508 4.16875 33.9805 4.36406 33.8398C4.55937 33.6953 4.65703 33.5078 4.65703 33.2773ZM10.057 33.9805C10.4125 33.9805 10.7074 33.877 10.9418 33.6699C11.1762 33.4629 11.3012 33.207 11.3168 32.9023H12.6586C12.643 33.2969 12.5199 33.666 12.2895 34.0098C12.059 34.3496 11.7465 34.6191 11.352 34.8184C10.9574 35.0176 10.5316 35.1172 10.0746 35.1172C9.18789 35.1172 8.48477 34.8301 7.96523 34.2559C7.4457 33.6816 7.18594 32.8887 7.18594 31.877V31.7305C7.18594 30.7656 7.44375 29.9941 7.95937 29.416C8.475 28.834 9.17812 28.543 10.0687 28.543C10.8227 28.543 11.4359 28.7637 11.9086 29.2051C12.3852 29.6426 12.6352 30.2188 12.6586 30.9336H11.3168C11.3012 30.5703 11.1762 30.2715 10.9418 30.0371C10.7113 29.8027 10.4164 29.6855 10.057 29.6855C9.59609 29.6855 9.24062 29.8535 8.99062 30.1895C8.74062 30.5215 8.61367 31.0273 8.60977 31.707V31.9355C8.60977 32.623 8.73281 33.1367 8.97891 33.4766C9.22891 33.8125 9.58828 33.9805 10.057 33.9805ZM17.6719 35C17.6094 34.8789 17.5547 34.6816 17.5078 34.4082C17.0547 34.8809 16.5 35.1172 15.8438 35.1172C15.207 35.1172 14.6875 34.9355 14.2852 34.5723C13.8828 34.209 13.6816 33.7598 13.6816 33.2246C13.6816 32.5488 13.9316 32.0312 14.4316 31.6719C14.9355 31.3086 15.6543 31.127 16.5879 31.127H17.4609V30.7109C17.4609 30.3828 17.3691 30.1211 17.1855 29.9258C17.002 29.7266 16.7227 29.627 16.3477 29.627C16.0234 29.627 15.7578 29.709 15.5508 29.873C15.3438 30.0332 15.2402 30.2383 15.2402 30.4883H13.8164C13.8164 30.1406 13.9316 29.8164 14.1621 29.5156C14.3926 29.2109 14.7051 28.9727 15.0996 28.8008C15.498 28.6289 15.9414 28.543 16.4297 28.543C17.1719 28.543 17.7637 28.7305 18.2051 29.1055C18.6465 29.4766 18.873 30 18.8848 30.6758V33.5352C18.8848 34.1055 18.9648 34.5605 19.125 34.9004V35H17.6719ZM16.1074 33.9746C16.3887 33.9746 16.6523 33.9062 16.8984 33.7695C17.1484 33.6328 17.3359 33.4492 17.4609 33.2188V32.0234H16.6934C16.166 32.0234 15.7695 32.1152 15.5039 32.2988C15.2383 32.4824 15.1055 32.7422 15.1055 33.0781C15.1055 33.3516 15.1953 33.5703 15.375 33.7344C15.5586 33.8945 15.8027 33.9746 16.1074 33.9746ZM21.8473 28.6602L21.8883 29.3926C22.357 28.8262 22.9723 28.543 23.734 28.543C25.0543 28.543 25.7262 29.2988 25.7496 30.8105V35H24.3258V30.8926C24.3258 30.4902 24.2379 30.1934 24.0621 30.002C23.8902 29.8066 23.607 29.709 23.2125 29.709C22.6383 29.709 22.2105 29.9688 21.9293 30.4883V35H20.5055V28.6602H21.8473Z" fill="white"/>
</svg>
