<svg width="46" height="39" viewBox="0 0 46 39" fill="none" xmlns="http://www.w3.org/2000/svg">
<path d="M2.68906 27.1191V28.6602H3.8082V29.7148H2.68906V33.2539C2.68906 33.4961 2.73594 33.6719 2.82969 33.7812C2.92734 33.8867 3.09922 33.9395 3.34531 33.9395C3.50937 33.9395 3.67539 33.9199 3.84336 33.8809V34.9824C3.51914 35.0723 3.20664 35.1172 2.90586 35.1172C1.81211 35.1172 1.26523 34.5137 1.26523 33.3066V29.7148H0.222265V28.6602H1.26523V27.1191H2.68906ZM8.37031 29.9609C8.18281 29.9297 7.98945 29.9141 7.79023 29.9141C7.13789 29.9141 6.69844 30.1641 6.47187 30.6641V35H5.04805V28.6602H6.40742L6.44258 29.3691C6.78633 28.8184 7.26289 28.543 7.87227 28.543C8.07539 28.543 8.24336 28.5703 8.37617 28.625L8.37031 29.9609ZM12.0945 35.1172C11.1922 35.1172 10.4598 34.834 9.89727 34.2676C9.33867 33.6973 9.05937 32.9395 9.05937 31.9941V31.8184C9.05937 31.1855 9.18047 30.6211 9.42266 30.125C9.66875 29.625 10.0125 29.2363 10.4539 28.959C10.8953 28.6816 11.3875 28.543 11.9305 28.543C12.7937 28.543 13.4598 28.8184 13.9285 29.3691C14.4012 29.9199 14.6375 30.6992 14.6375 31.707V32.2812H10.4949C10.5379 32.8047 10.7117 33.2188 11.0164 33.5234C11.325 33.8281 11.7117 33.9805 12.1766 33.9805C12.8289 33.9805 13.3602 33.7168 13.7703 33.1895L14.5379 33.9219C14.284 34.3008 13.9441 34.5957 13.5184 34.8066C13.0965 35.0137 12.6219 35.1172 12.0945 35.1172ZM11.9246 29.6855C11.534 29.6855 11.2176 29.8223 10.9754 30.0957C10.7371 30.3691 10.5848 30.75 10.5184 31.2383H13.2312V31.1328C13.2 30.6562 13.073 30.2969 12.8504 30.0547C12.6277 29.8086 12.3191 29.6855 11.9246 29.6855ZM19.6859 35C19.6234 34.8789 19.5687 34.6816 19.5219 34.4082C19.0687 34.8809 18.5141 35.1172 17.8578 35.1172C17.2211 35.1172 16.7016 34.9355 16.2992 34.5723C15.8969 34.209 15.6957 33.7598 15.6957 33.2246C15.6957 32.5488 15.9457 32.0312 16.4457 31.6719C16.9496 31.3086 17.6684 31.127 18.602 31.127H19.475V30.7109C19.475 30.3828 19.3832 30.1211 19.1996 29.9258C19.016 29.7266 18.7367 29.627 18.3617 29.627C18.0375 29.627 17.7719 29.709 17.5648 29.873C17.3578 30.0332 17.2543 30.2383 17.2543 30.4883H15.8305C15.8305 30.1406 15.9457 29.8164 16.1762 29.5156C16.4066 29.2109 16.7191 28.9727 17.1137 28.8008C17.5121 28.6289 17.9555 28.543 18.4437 28.543C19.1859 28.543 19.7777 28.7305 20.2191 29.1055C20.6605 29.4766 20.8871 30 20.8988 30.6758V33.5352C20.8988 34.1055 20.9789 34.5605 21.1391 34.9004V35H19.6859ZM18.1215 33.9746C18.4027 33.9746 18.6664 33.9062 18.9125 33.7695C19.1625 33.6328 19.35 33.4492 19.475 33.2188V32.0234H18.7074C18.1801 32.0234 17.7836 32.1152 17.518 32.2988C17.2523 32.4824 17.1195 32.7422 17.1195 33.0781C17.1195 33.3516 17.2094 33.5703 17.3891 33.7344C17.5727 33.8945 17.8168 33.9746 18.1215 33.9746ZM26.0938 33.2773C26.0938 33.0234 25.9883 32.8301 25.7773 32.6973C25.5703 32.5645 25.2246 32.4473 24.7402 32.3457C24.2559 32.2441 23.8516 32.1152 23.5273 31.959C22.8164 31.6152 22.4609 31.1172 22.4609 30.4648C22.4609 29.918 22.6914 29.4609 23.1523 29.0938C23.6133 28.7266 24.1992 28.543 24.9102 28.543C25.668 28.543 26.2793 28.7305 26.7441 29.1055C27.2129 29.4805 27.4473 29.9668 27.4473 30.5645H26.0234C26.0234 30.291 25.9219 30.0645 25.7188 29.8848C25.5156 29.7012 25.2461 29.6094 24.9102 29.6094C24.5977 29.6094 24.3418 29.6816 24.1426 29.8262C23.9473 29.9707 23.8496 30.1641 23.8496 30.4062C23.8496 30.625 23.9414 30.7949 24.125 30.916C24.3086 31.0371 24.6797 31.1602 25.2383 31.2852C25.7969 31.4062 26.2344 31.5527 26.5508 31.7246C26.8711 31.8926 27.1074 32.0957 27.2598 32.334C27.416 32.5723 27.4941 32.8613 27.4941 33.2012C27.4941 33.7715 27.2578 34.2344 26.7852 34.5898C26.3125 34.9414 25.6934 35.1172 24.9277 35.1172C24.4082 35.1172 23.9453 35.0234 23.5391 34.8359C23.1328 34.6484 22.8164 34.3906 22.5898 34.0625C22.3633 33.7344 22.25 33.3809 22.25 33.002H23.6328C23.6523 33.3379 23.7793 33.5977 24.0137 33.7812C24.248 33.9609 24.5586 34.0508 24.9453 34.0508C25.3203 34.0508 25.6055 33.9805 25.8008 33.8398C25.9961 33.6953 26.0938 33.5078 26.0938 33.2773ZM32.7301 34.3789C32.3121 34.8711 31.7184 35.1172 30.9488 35.1172C30.2613 35.1172 29.7398 34.916 29.3844 34.5137C29.0328 34.1113 28.857 33.5293 28.857 32.7676V28.6602H30.2809V32.75C30.2809 33.5547 30.6148 33.957 31.2828 33.957C31.9742 33.957 32.441 33.709 32.6832 33.2129V28.6602H34.107V35H32.7652L32.7301 34.3789ZM39.0266 29.9609C38.8391 29.9297 38.6457 29.9141 38.4465 29.9141C37.7941 29.9141 37.3547 30.1641 37.1281 30.6641V35H35.7043V28.6602H37.0637L37.0988 29.3691C37.4426 28.8184 37.9191 28.543 38.5285 28.543C38.7316 28.543 38.8996 28.5703 39.0324 28.625L39.0266 29.9609ZM42.7508 35.1172C41.8484 35.1172 41.116 34.834 40.5535 34.2676C39.9949 33.6973 39.7156 32.9395 39.7156 31.9941V31.8184C39.7156 31.1855 39.8367 30.6211 40.0789 30.125C40.325 29.625 40.6687 29.2363 41.1102 28.959C41.5516 28.6816 42.0437 28.543 42.5867 28.543C43.45 28.543 44.116 28.8184 44.5848 29.3691C45.0574 29.9199 45.2937 30.6992 45.2937 31.707V32.2812H41.1512C41.1941 32.8047 41.368 33.2188 41.6727 33.5234C41.9812 33.8281 42.368 33.9805 42.8328 33.9805C43.4852 33.9805 44.0164 33.7168 44.4266 33.1895L45.1941 33.9219C44.9402 34.3008 44.6004 34.5957 44.1746 34.8066C43.7527 35.0137 43.2781 35.1172 42.7508 35.1172ZM42.5809 29.6855C42.1902 29.6855 41.8738 29.8223 41.6316 30.0957C41.3934 30.3691 41.241 30.75 41.1746 31.2383H43.8875V31.1328C43.8562 30.6562 43.7293 30.2969 43.5066 30.0547C43.284 29.8086 42.9754 29.6855 42.5809 29.6855Z" fill="white"/>
<path d="M25 6V4H21V6H25ZM15 8V19H31V8H15ZM31 6C32.11 6 33 6.89 33 8V19C33 20.11 32.11 21 31 21H15C13.89 21 13 20.11 13 19L13.01 8C13.01 6.89 13.89 6 15 6H19V4C19 2.89 19.89 2 21 2H25C26.11 2 27 2.89 27 4V6H31Z" fill="white"/>
</svg>
